<?xml version="1.0" standalone="no"?>
<!DOCTYPE svg PUBLIC "-//W3C//DTD SVG 20010904//EN"
 "http://www.w3.org/TR/2001/REC-SVG-20010904/DTD/svg10.dtd">
<svg version="1.0" xmlns="http://www.w3.org/2000/svg"
 width="260.000000pt" height="260.000000pt" viewBox="0 0 260.000000 260.000000"
 preserveAspectRatio="xMidYMid meet">
<metadata>
Created by potrace 1.11, written by Peter Selinger 2001-2013
</metadata>
<g transform="translate(0.000000,260.000000) scale(0.100000,-0.100000)"
fill="#000000" stroke="none">
<path d="M401 2444 c-17 -14 -35 -42 -41 -62 -8 -25 -10 -217 -8 -599 l3 -561
32 -31 33 -31 349 0 c309 0 350 -2 355 -16 3 -9 6 -64 6 -124 0 -60 -3 -115
-6 -124 -5 -12 -21 -16 -65 -16 -52 0 -59 -2 -59 -20 0 -20 7 -20 299 -20 247
0 300 2 304 14 9 22 -2 26 -64 26 -50 0 -57 2 -63 22 -8 30 -8 206 0 236 l6
22 349 0 349 0 33 31 32 31 0 590 0 590 -37 34 -38 34 -869 0 -869 0 -31 -26z
m1773 -38 l26 -23 0 -576 0 -576 -22 -15 c-20 -14 -120 -16 -878 -16 -758 0
-858 2 -878 16 l-22 15 0 575 c0 548 1 575 19 593 10 10 25 21 32 24 8 3 393
6 856 6 l842 1 25 -24z m-744 -1386 l0 -140 -130 0 -130 0 0 140 0 140 130 0
130 0 0 -140z"/>
<path d="M1413 2146 c-6 -8 -19 -37 -27 -66 -9 -29 -20 -58 -25 -64 -4 -6 -14
-29 -21 -51 -7 -22 -16 -44 -20 -50 -4 -5 -13 -28 -20 -50 -7 -22 -16 -42 -19
-45 -4 -3 -15 -33 -26 -67 -10 -35 -22 -63 -27 -63 -4 0 -8 -8 -8 -18 0 -10
-8 -34 -19 -54 -27 -53 -53 -137 -46 -148 12 -20 42 9 54 52 7 24 17 48 21 53
4 6 13 28 20 50 7 22 18 54 25 70 7 17 25 59 40 95 15 36 35 83 45 105 10 22
23 59 29 82 7 23 15 44 20 47 4 3 14 26 21 51 7 25 17 48 22 51 5 3 4 12 -3
20 -14 17 -21 17 -36 0z"/>
<path d="M910 2008 c-41 -22 -88 -48 -105 -56 -16 -9 -32 -18 -35 -22 -3 -3
-22 -15 -43 -26 -22 -10 -55 -27 -75 -38 -41 -20 -72 -45 -72 -57 0 -10 82
-65 112 -74 12 -4 29 -13 37 -19 30 -25 258 -146 274 -146 4 0 7 8 7 18 0 11
-22 30 -62 52 -34 19 -96 54 -137 78 -42 23 -93 50 -113 60 -21 9 -40 22 -42
28 -4 10 57 48 164 101 19 10 37 21 40 24 6 7 51 31 108 59 30 13 42 25 40 37
-5 27 -19 24 -98 -19z"/>
<path d="M1597 2043 c-16 -16 -4 -33 36 -52 23 -12 60 -31 82 -44 22 -13 69
-39 105 -59 103 -56 130 -72 130 -80 0 -4 -17 -15 -37 -25 -21 -9 -40 -20 -43
-24 -3 -3 -25 -16 -50 -27 -71 -34 -175 -94 -178 -103 -2 -5 -9 -9 -17 -9 -7
0 -18 -7 -25 -15 -19 -23 3 -45 28 -27 9 7 27 16 39 22 21 9 240 130 273 151
8 5 29 16 46 24 51 23 50 41 -4 71 -26 14 -54 30 -62 35 -8 5 -31 17 -50 27
-19 9 -37 20 -40 23 -5 6 -14 11 -140 77 -93 47 -84 44 -93 35z"/>
<path d="M665 772 c-85 -30 -168 -111 -190 -186 -19 -64 -19 -198 0 -262 18
-62 83 -134 150 -165 71 -34 198 -34 270 -1 55 26 105 68 105 89 0 26 -31 26
-58 1 -66 -60 -96 -71 -195 -66 -57 3 -92 9 -95 16 -2 7 -10 12 -17 12 -7 0
-34 23 -59 52 -54 62 -71 119 -63 222 11 162 101 250 256 249 40 -1 83 -5 95
-11 11 -6 29 -13 39 -16 12 -4 17 -16 17 -44 0 -41 14 -62 41 -62 21 0 29 20
29 68 0 47 -6 55 -60 82 -36 18 -65 23 -145 26 -55 2 -109 0 -120 -4z"/>
<path d="M1057 763 c-4 -3 -7 -30 -7 -59 0 -37 4 -54 15 -58 27 -10 44 5 47
42 l3 37 98 3 97 3 0 -295 c0 -291 0 -295 21 -301 12 -4 25 -3 30 2 5 5 10
139 11 298 l3 290 98 3 97 3 0 -29 c0 -15 6 -37 14 -48 32 -42 69 25 52 92
l-6 24 -284 0 c-155 0 -286 -3 -289 -7z"/>
<path d="M1675 759 c-11 -16 6 -27 45 -31 l35 -3 3 -292 2 -293 221 0 220 0
-3 63 c-3 54 -5 62 -23 62 -16 0 -21 -8 -25 -40 l-5 -40 -165 0 -165 0 0 270
0 270 40 5 c27 3 40 10 40 20 0 12 -20 16 -107 18 -71 2 -109 -1 -113 -9z"/>
</g>
</svg>
